# xmcd
#
# Track frame offsets: 
#        150
#        16424
#        29092
#        44749
#        57170
#        69146
#        78971
#        92857
#        103912
#        114093
#        127207
#        137955
#
# Disc length: 2015 seconds
#
# Revision: 2
# Processed by: cddbd v1.5.2PL0 Copyright (c) Steve Scherf et al.
# Submitted via: ExactAudioCopyFreeDBPlugin 1.0
#
DISCID=a907dd0c
DTITLE=Billie Jo Spears - The Best Of Billie Jo Spears
DYEAR=1994
DGENRE=Country
TTITLE0=Blanket On The Ground
TTITLE1=Stay Away From The Apple Tree
TTITLE2=Silver Wings And Golden Rings
TTITLE3=What I've Got In Mind
TTITLE4=Misty Blue
TTITLE5=Never Did Like Whiskey
TTITLE6=I'm Not Easy
TTITLE7=If You Want Me
TTITLE8=Too Much Is Not Enough
TTITLE9=Love Ain't Gonna Wait For Us
TTITLE10=Your Good Girl's Gonna Go Bad
TTITLE11=What The World Needs Now Is Love
EXTD=
EXTT0=
EXTT1=
EXTT2=
EXTT3=
EXTT4=
EXTT5=
EXTT6=
EXTT7=
EXTT8=
EXTT9=
EXTT10=
EXTT11=
PLAYORDER=
